# xmcd CD database file
#
# Track frame offsets:
#	150
#	17593
#	39682
#	61197
#	85275
#	108232
#	130351
#	152640
#	174348
#	193924
#	212803
#	242482
#	262175
#	290832
#	315467
#
# Disc length: 4703 seconds
#
# Revision: 1
# Processed by: cddbd v1.5.2PL0 Copyright (c) Steve Scherf et al.
# Submitted via: CDex 1.82
#
DISCID=d6125d0f
DTITLE=The B-52s - Cosmic Thing
DYEAR=1989
DGENRE=New Age
TTITLE0=Cosmic Thing
TTITLE1=Dry County
TTITLE2=Deadbeat Club
TTITLE3=Love Shack
TTITLE4=Junebug
TTITLE5=Roam
TTITLE6=Bushfire
TTITLE7=Channel Z
TTITLE8=Topaz
TTITLE9=Follow Your Bliss
TTITLE10=B52s Megamix
TTITLE11=Love Shack (Edit)
TTITLE12=Channel Z (Rock Mix)
TTITLE13=Roam (Ext. Remix)
TTITLE14=Roam (12" remix)
EXTD=YEAR: 1989
EXTT0=
EXTT1=
EXTT2=
EXTT3=
EXTT4=
EXTT5=
EXTT6=
EXTT7=
EXTT8=
EXTT9=
EXTT10=
EXTT11=
EXTT12=
EXTT13=
EXTT14=
PLAYORDER=
